Description

Sinopse e detalhes

Após ser sequestrada e presa em um cativeiro, uma mulher (Kim Basinger) consegue fazer uma ligação telefônica após consertar um aparelho quebrado. Ela disca para um número qualquer e a chamada cai no telefone celular de Ryan (Chris Evans), que a princípio acredita que a história seja um trote. Após ouvir os gritos dela e as vozes dos sequestradores ameaçando-a, Ryan se convence que o pedido de ajuda é sério e passa a buscar meios de ajudá-la. O problema é que ela não sabe onde está e a bateria do celular de Ryan pode acabar a qualquer momento, o que poria fim a qualquer tipo de contato entre os dois.

Format : Matroska
Format version : Version 2
File size : 499 MiB
Duration : 1h 33mn
Overall bit rate : 743 Kbps
Encoded date : UTC 2013-05-16 19:23:07
Writing application : mkvmerge v5.8.0 ('No Sleep / Pillow') built on Sep 2 2012 15:37:04
Writing library : libebml v1.2.3 + libmatroska v1.3.0

Video
ID : 1
Format : AVC
Format/Info : Advanced Video Codec
Format profile : High@L4.1
Format settings, CABAC : Yes
Format settings, ReFrames : 4 frames
Muxing mode : Header stripping
Codec ID : V_MPEG4/ISO/AVC
Duration : 1h 33mn
Bit rate : 504 Kbps
Width : 704 pixels
Height : 288 pixels
Display aspect ratio : 2.40:1
Frame rate mode : Constant
Frame rate : 23.976 fps
Color space : YUV
Chroma subsampling : 4:2:0
Bit depth : 8 bits
Scan type : Progressive
Bits/(Pixel*Frame) : 0.104
Stream size : 339 MiB (68%)
Title : Celular Um Grito de Socorro ( by fantasma )
Writing library : x264 core 130 r2273 b3065e6
Encoding settings : cabac=1 / ref=3 / deblock=1:0:0 / analyse=0x3:0x113 / me=hex / subme=7 / psy=1 / psy_rd=1.00:0.00 / mixed_ref=1 / me_range=16 / chroma_me=1 / trellis=1 / 8x8dct=1 / cqm=0 / deadzone=21,11 / fast_pskip=1 / chroma_qp_offset=-2 / threads=3 / lookahead_threads=1 / sliced_threads=0 / nr=0 / decimate=1 / interlaced=0 / bluray_compat=0 / constrained_intra=0 / bframes=3 / b_pyramid=2 / b_adapt=1 / b_bias=0 / direct=1 / weightb=1 / open_gop=0 / weightp=2 / keyint=240 / keyint_min=23 / scenecut=40 / intra_refresh=0 / rc_lookahead=40 / rc=crf / mbtree=1 / crf=23.0 / qcomp=0.60 / qpmin=0 / qpmax=69 / qpstep=4 / vbv_maxrate=62500 / vbv_bufsize=78125 / crf_max=0.0 / nal_hrd=none / ip_ratio=1.40 / aq=1:1.00
Language : Portuguese
Default : Yes
Forced : No

Audio
ID : 2
Format : AC-3
Format/Info : Audio Coding 3
Mode extension : CM (complete main)
Format settings, Endianness : Big
Muxing mode : Header stripping
Codec ID : A_AC3
Duration : 1h 33mn
Bit rate mode : Constant
Bit rate : 224 Kbps
Channel(s) : 2 channels
Channel positions : Front: L R
Sampling rate : 48.0 KHz
Bit depth : 16 bits
Compression mode : Lossy
Delay relative to video : 650ms
Stream size : 151 MiB (30%)
Title : by fantasma
Language : Portuguese
Default : Yes
Forced : No

Text #1
ID : 3
Format : VobSub
Muxing mode : zlib
Codec ID : S_VOBSUB
Codec ID/Info : The same subtitle format used on DVDs
Title : por
Language : Portuguese
Default : No
Forced : No

Text #2
ID : 4
Format : VobSub
Muxing mode : zlib
Codec ID : S_VOBSUB
Codec ID/Info : The same subtitle format used on DVDs
Title : eng
Language : English
Default : No
Forced : No

Text #3
ID : 5
Format : UTF-8
Codec ID : S_TEXT/UTF8
Codec ID/Info : UTF-8 Plain Text
Title : Credito
Language : Portuguese
Default : Yes
Forced : No

Menu
00:00:00.000 : en:Chapter 01
00:05:50.667 : en:Chapter 02
00:09:36.167 : en:Chapter 03
00:15:10.834 : en:Chapter 04
00:19:47.702 : en:Chapter 05
00:25:14.503 : en:Chapter 06
00:29:46.170 : en:Chapter 07
00:36:16.837 : en:Chapter 08
00:40:30.705 : en:Chapter 09
00:46:11.673 : en:Chapter 10
00:49:03.173 : en:Chapter 11
00:56:05.840 : en:Chapter 12
01:02:06.840 : en:Chapter 13
01:10:50.174 : en:Chapter 14
01:17:51.708 : en:Chapter 15
01:27:36.875 : en:Chapter 16
01:33:53.576 : en:Chapter 17